#!OML:ASF Y:\EmotionMaleHayes\Project 1\Capture day 1\Session 1\Male1.ASF
:FULLY-SPECIFIED
:DEGREES
1305
root 38.6243 15.9958 16.9446 868.779 70.7212 869.28
lowerback 4.71798 0.505135 -13.4771
upperback 6.53124 0.884305 -2.30237
thorax 4.18755 0.0626344 5.09768
lowerneck -17.8379 3.17009 8.55311
upperneck 28.782 2.33955 0.645861
head 12.6814 2.30573 -0.774739
rclavicle -5.15846e-014 5.04913e-014
rhumerus -34.8006 -3.45366 -83.3271
rradius 24.2421
rwrist 15.8245
rhand -2.50064 -31.854
rfingers 7.12502
rthumb 23.1931 -60.4776
lclavicle -5.15846e-014 5.04913e-014
lhumerus -22.585 -15.6829 92.749
lradius 28.9467
lwrist -5.44326
lhand -18.8942 -27.2942
lfingers 7.12502
lthumb 7.40731 2.55611
rfemur -29.8485 3.9676 -8.20083
rtibia 23.8398
rfoot -13.4065 -3.00206
rtoes 11.6065
lfemur 21.8856 -9.35798 -33.5227
ltibia 21.7076
lfoot -22.9436 -4.79827
ltoes -14.0967
1306
root 38.7873 15.9927 16.9579 870.69 70.8123 871.761
lowerback 5.17365 0.609867 -12.783
upperback 6.78448 0.978904 -1.9601
thorax 4.17027 0.122899 5.07253
lowerneck -18.2262 3.14988 8.35075
upperneck 29.0455 2.31378 0.711097
head 12.8632 2.29015 -0.711587
rclavicle 1.95306e-014 1.2921e-014
rhumerus -33.875 -2.28336 -83.5489
rradius 24.1739
rwrist 15.2713
rhand -2.6879 -32.2597
rfingers 7.12502
rthumb 23.0135 -60.9057
lclavicle 1.95306e-014 1.2921e-014
lhumerus -23.1275 -15.1159 92.7425
lradius 29.059
lwrist -5.55313
lhand -18.977 -27.4769
lfingers 7.12502
lthumb 7.32738 2.3762
rfemur -29.8485 3.9676 -8.20083
rtibia 23.8398
rfoot -13.4065 -3.00206
rtoes 11.6065
lfemur 22.5341 -9.27839 -32.3672
ltibia 22.4824
lfoot -22.1411 -4.69271
ltoes -14.5716
1307
root 38.9538 15.9868 16.9772 873.528 71.2101 875.241
lowerback 5.60289 0.708954 -11.6891
upperback 6.99286 1.07465 -1.5786
thorax 4.11337 0.20326 4.86492
lowerneck -18.4816 3.35005 8.08692
upperneck 29.2983 2.54657 1.11802
head 13.0222 2.42892 -0.462772
rclavicle 2.26366e-014 -3.08116e-015
rhumerus -33.0983 -1.10514 -83.9715
rradius 24.1622
rwrist 14.776
rhand -3.10155 -32.5474
rfingers 7.12502
rthumb 22.6165 -61.2424
lclavicle 2.26366e-014 -3.08116e-015
lhumerus -22.5038 -14.3276 92.5915
lradius 27.8864
lwrist -5.6567
lhand -19.0174 -27.4289
lfingers 7.12502
lthumb 7.28836 2.42555
rfemur -29.8485 3.9676 -8.20083
rtibia 23.8398
rfoot -13.4065 -3.00206
rtoes 11.6065
lfemur 23.175 -9.05694 -30.566
ltibia 23.2348
lfoot -20.9351 -4.76619
ltoes -13.8914
1308
root 39.0977 16.0013 16.9608 871.756 70.4021 873.458
lowerback 5.96184 0.668537 -12.2061
upperback 7.01004 0.98908 -1.89085
thorax 3.95979 0.1649 4.81894
lowerneck -17.5408 3.28701 9.52224
upperneck 28.5513 2.49679 -0.190521
head 12.5639 2.36148 -1.23769
rclavicle 1.58282e-014 -3.28989e-014
rhumerus -32.5722 -1.2359 -84.1289
rradius 24.3552
rwrist 15.5987
rhand -3.45951 -32.5942
rfingers 7.12502
rthumb 22.2729 -61.3307
lclavicle 1.58282e-014 -3.28989e-014
lhumerus -22.8545 -13.506 92.3548
lradius 27.5497
lwrist -5.65464
lhand -19.1576 -27.1466
lfingers 7.12502
lthumb 7.15304 2.71251
rfemur -29.8485 3.9676 -8.20083
rtibia 23.8398
rfoot -13.4065 -3.00206
rtoes 11.6065
lfemur 23.0833 -8.83423 -31.4303
ltibia 24.484
lfoot -19.8477 -5.06963
ltoes -13.1549
1309
root 39.2604 16.0017 16.988 873.522 70.6652 875.678
lowerback 6.18889 0.733975 -11.821
upperback 7.27498 1.07296 -1.52847
thorax 4.09403 0.198988 4.98505
lowerneck -18.4543 3.78558 8.75821
upperneck 29.2137 3.19623 0.351774
head 13.0369 2.67541 -0.765091
rclavicle -4.48011e-014 3.57812e-015
rhumerus -31.7337 -1.26074 -84.1093
rradius 24.6438
rwrist 16.3013
rhand -3.75965 -32.7554
rfingers 7.12502
rthumb 21.9848 -61.526
lclavicle -4.48011e-014 3.57812e-015
lhumerus -23.146 -12.7517 92.1701
lradius 27.426
lwrist -5.47294
lhand -19.5031 -26.9263
lfingers 7.12502
lthumb 6.81953 2.94389
rfemur -29.8485 3.9676 -8.20083
rtibia 23.8398
rfoot -13.4065 -3.00206
rtoes 11.6065
lfemur 23.3972 -8.52624 -29.9328
ltibia 25.3184
lfoot -19.0588 -5.39711
ltoes -12.9713
1310
root 39.4007 16.0098 16.9948 875.421 70.5245 877.886
lowerback 6.56888 0.695218 -11.2061
upperback 7.44937 1.00269 -1.28915
thorax 4.0691 0.184026 4.89549
lowerneck -19.0247 3.99723 8.04353
upperneck 29.468 3.53335 0.80094
head 13.2493 2.80638 -0.399496
rclavicle 5.59827e-014 6.85807e-015
rhumerus -30.8304 -0.455417 -84.3065
rradius 24.7807
rwrist 16.0467
rhand -4.15438 -32.8517
rfingers 7.12502
rthumb 21.6057 -61.6663
lclavicle 5.59827e-014 6.85807e-015
lhumerus -23.6318 -12.3784 92.0669
lradius 27.442
lwrist -4.93029
lhand -19.7655 -26.5622
lfingers 7.12502
lthumb 6.56616 3.31601
rfemur -29.8485 3.9676 -8.20083
rtibia 23.8398
rfoot -13.4065 -3.00206
rtoes 11.6065
lfemur 23.4094 -8.46762 -28.8575
ltibia 26.4217
lfoot -18.2277 -5.75264
ltoes -11.8124
1311
root 39.5892 16.0219 17.004 878.22 70.3414 880.911
lowerback 6.19712 0.570547 -10.6729
upperback 7.72467 0.91133 -0.852712
thorax 4.5775 0.114773 5.06924
lowerneck -18.7853 4.00644 8.72291
upperneck 29.4869 3.50756 0.325087
head 13.235 2.81063 -0.706807
rclavicle 1.4356e-014 -2.41275e-014
rhumerus -29.9403 0.531861 -84.4407
rradius 24.9387
rwrist 15.6465
rhand -4.5597 -32.8381
rfingers 7.12502
rthumb 21.2164 -61.697
lclavicle 1.4356e-014 -2.41275e-014
lhumerus -24.1209 -11.9565 92.0577
lradius 27.4477
lwrist -4.35526
lhand -19.8582 -26.1959
lfingers 7.12502
lthumb 6.47675 3.68505
rfemur -29.8485 3.9676 -8.20083
rtibia 23.8398
rfoot -13.4065 -3.00206
rtoes 11.6065
lfemur 23.5128 -8.41371 -27.3457
ltibia 27.3525
lfoot -16.9975 -6.07307
ltoes -9.51957
1312
root 39.7258 16.0342 17.0121 881.441 70.293 884.416
lowerback 6.52512 0.505003 -9.67429
upperback 7.82125 0.802941 -0.39917
thorax 4.49287 0.0967271 4.9912
lowerneck -18.5689 4.0897 8.6865
upperneck 29.296 3.61608 0.476656
head 13.1121 2.86902 -0.629583
rclavicle 2.42238e-014 -1.76049e-014
rhumerus -29.1496 1.2436 -84.4361
rradius 25.1713
rwrist 15.3537
rhand -5.40421 -32.8711
rfingers 7.12502
rthumb 20.405 -61.819
lclavicle 2.42238e-014 -1.76049e-014
lhumerus -24.6173 -11.4544 92.0795
lradius 27.5295
lwrist -3.97922
lhand -19.8382 -26.1388
lfingers 7.12502
lthumb 6.49601 3.74158
rfemur -29.8485 3.9676 -8.20083
rtibia 23.8398
rfoot -13.4065 -3.00206
rtoes 11.6065
lfemur 23.2932 -8.2619 -25.5489
ltibia 28.6489
lfoot -15.2485 -5.96315
ltoes -6.03382
1313
root 39.8835 16.0461 17.0214 882.494 69.839 885.721
lowerback 6.76275 0.469459 -9.44711
upperback 7.92653 0.748766 -0.24738
thorax 4.47769 0.0782985 5.02467
lowerneck -18.488 4.1811 9.04249
upperneck 29.5103 3.81692 -0.016138
head 13.2137 2.94022 -0.844857
rclavicle -2.95195e-014 -2.93953e-014
rhumerus -28.4444 2.1602 -84.6281
rradius 25.3529
rwrist 14.7419
rhand -6.3188 -32.9426
rfingers 7.12502
rthumb 19.5259 -61.9821
lclavicle -2.95195e-014 -2.93953e-014
lhumerus -25.1861 -11.4339 92.0526
lradius 27.5382
lwrist -3.3271
lhand -19.8319 -25.9662
lfingers 7.12502
lthumb 6.50208 3.91394
rfemur -29.8485 3.9676 -8.20083
rtibia 23.8398
rfoot -13.4065 -3.00206
rtoes 11.6065
lfemur 23.1378 -8.19433 -24.7506
ltibia 29.9738
lfoot -14.0499 -6.25991
ltoes -3.90716
1314
root 40.0365 16.0619 17.0348 885.139 69.4723 888.465
lowerback 6.864 0.374115 -8.70086
upperback 7.92041 0.623144 0.0162346
thorax 4.41776 0.0460657 4.88755
lowerneck -18.6856 4.13152 8.9816
upperneck 30.2837 3.58316 0.671848
head 13.5599 2.967 -0.586206
rclavicle -1.98039e-014 1.54307e-014
rhumerus -27.778 2.6362 -84.7524
rradius 25.549
rwrist 14.418
rhand -6.58915 -33.0263
rfingers 7.12502
rthumb 19.2659 -62.092
lclavicle -1.98039e-014 1.54307e-014
lhumerus -25.741 -11.3012 91.9184
lradius 27.2617
lwrist -2.83557
lhand -19.939 -25.8274
lfingers 7.12502
lthumb 6.39875 4.05598
rfemur -29.8485 3.9676 -8.20083
rtibia 23.8398
rfoot -13.4065 -3.00206
rtoes 11.6065
lfemur 22.5919 -8.24377 -23.2555
ltibia 31.3675
lfoot -12.3893 -6.38191
ltoes -0.347243
1315
root 40.1777 16.0776 17.044 887.297 69.1035 890.623
lowerback 6.96825 0.329702 -8.04457
upperback 7.90365 0.566332 0.237423
thorax 4.33643 0.0465932 4.753
lowerneck -18.4306 4.24933 9.42475
upperneck 30.17 3.74819 0.351403
head 13.486 3.04377 -0.764045
rclavicle 9.15652e-015 -2.52705e-014
rhumerus -27.0644 3.22722 -84.8312
rradius 25.6435
rwrist 13.922
rhand -7.30552 -32.7077
rfingers 7.12502
rthumb 18.577 -61.8407
lclavicle 9.15652e-015 -2.52705e-014
lhumerus -26.1761 -11.2173 91.8232
lradius 26.9008
lwrist -2.57059
lhand -20.0515 -25.8014
lfingers 7.12502
lthumb 6.29008 4.08516
rfemur -29.8485 3.9676 -8.20083
rtibia 23.8398
rfoot -13.4065 -3.00206
rtoes 11.6065
lfemur 21.816 -8.20627 -21.9879
ltibia 32.9312
lfoot -10.6946 -5.99252
ltoes 1.2612
1316
root 40.321 16.087 17.0608 884.945 68.1723 888.111
lowerback 7.22364 0.369972 -9.35943
upperback 7.9446 0.572888 0.0632444
thorax 4.2656 -0.00094126 5.30699
lowerneck -18.3843 4.32982 9.73457
upperneck 30.0823 3.87638 0.0114434
head 13.4621 3.08434 -0.929493
rclavicle -8.23714e-015 2.36554e-014
rhumerus -26.2905 4.04859 -84.843
rradius 25.6059
rwrist 13.4615
rhand -8.63176 -31.9682
rfingers 7.12502
rthumb 17.3009 -61.2181
lclavicle -8.23714e-015 2.36554e-014
lhumerus -26.5753 -11.7929 91.9072
lradius 26.6594
lwrist -1.91111
lhand -20.1134 -25.4276
lfingers 7.12502
lthumb 6.23029 4.46075
rfemur -29.8485 3.9676 -8.20083
rtibia 23.8398
rfoot -13.4065 -3.00206
rtoes 11.6065
lfemur 20.9488 -8.15686 -22.7918
ltibia 34.8091
lfoot -9.19587 -5.29738
ltoes 1.95699
1317
root 40.4659 16.1135 17.0581 890.041 67.7074 893.25
lowerback 6.95682 0.0693888 -7.59262
upperback 7.95467 0.232722 0.615118
thorax 4.43686 -0.113041 4.90841
lowerneck -18.3129 4.45598 9.92258
upperneck 30.2089 4.04083 -0.0401428
head 13.5187 3.17789 -0.951278
rclavicle 4.77332e-014 -1.14301e-014
rhumerus -25.4578 5.17799 -84.9899
rradius 25.7206
rwrist 12.4009
rhand -9.47503 -32.0389
rfingers 7.12502
rthumb 16.4891 -61.3582
lclavicle 4.77332e-014 -1.14301e-014
lhumerus -27.0588 -12.2163 91.9286
lradius 26.5934
lwrist -1.17506
lhand -20.0968 -24.9591
lfingers 7.12502
lthumb 6.24636 4.92881
rfemur -29.8485 3.9676 -8.20083
rtibia 23.8398
rfoot -13.4065 -3.00206
rtoes 11.6065
lfemur 20.0186 -8.37668 -20.2714
ltibia 36.3548
lfoot -7.8656 -4.71101
ltoes 4.26474
